<?xml version="1.0" encoding="UTF-8"?><svg xmlns="http://www.w3.org/2000/svg" xmlns:xlink="http://www.w3.org/1999/xlink" viewBox="0 0 64 64"><defs><style>.g{fill:#000;}.g,.h{stroke-width:0px;}.i{fill:none;stroke:#fff;stroke-linejoin:round;stroke-width:4.375px;}.h{fill:url(#e);}</style><linearGradient id="e" x1="40" y1="80" x2="40" y2="0" gradientUnits="userSpaceOnUse"><stop offset=".1" stop-color="#fff" stop-opacity=".02"/><stop offset=".9" stop-color="#fff" stop-opacity=".1"/></linearGradient></defs><g id="c"><rect class="g" width="64" height="64" rx="14.6" ry="14.6"/></g><g id="d"><rect class="h" width="64" height="64" rx="14.6" ry="14.6"/></g><g id="f"><path class="i" d="M26.71,40.5h18.04c2.37,0,4.29,1.94,4.25,4.32-.04,2.33-1.99,4.18-4.32,4.18h-25.43"/><path class="i" d="M37.03,23.5h-17.71c-2.33,0-4.28-1.85-4.32-4.18-.04-2.38,1.88-4.32,4.25-4.32h25.5"/><path class="i" d="M19.25,49c-.54,0-1.09-.1-1.62-.32-2.17-.9-3.2-3.38-2.3-5.55,1.38-3.33,3.36-6.32,5.89-8.89,2.61-2.65,5.7-4.73,9.16-6.16,4.76-1.97,8.48-5.68,10.45-10.45.9-2.17,3.38-3.2,5.55-2.3,2.17.9,3.2,3.38,2.3,5.55-1.38,3.33-3.36,6.32-5.89,8.89-2.61,2.65-5.7,4.73-9.16,6.16-4.76,1.97-8.48,5.68-10.45,10.45-.68,1.64-2.26,2.62-3.93,2.62Z"/></g></svg>
