<!DOCTYPE svg PUBLIC "-//W3C//DTD SVG 1.1//EN" "http://www.w3.org/Graphics/SVG/1.1/DTD/svg11.dtd">
<!-- Uploaded to: SVG Repo, www.svgrepo.com, Transformed by: SVG Repo Mixer Tools -->
<svg width="800px" height="800px" viewBox="0 0 24 24" fill="none" xmlns="http://www.w3.org/2000/svg">
<g id="SVGRepo_bgCarrier" stroke-width="0"/>
<g id="SVGRepo_tracerCarrier" stroke-linecap="round" stroke-linejoin="round"/>
<g id="SVGRepo_iconCarrier"> <path d="M17.5 5.00006H6.5C5.37366 4.93715 4.2682 5.32249 3.42505 6.07196C2.5819 6.82143 2.06958 7.87411 2 9.00006V15.0001C2.06958 16.126 2.5819 17.1787 3.42505 17.9282C4.2682 18.6776 5.37366 19.0628 6.5 18.9999H17.5C18.6263 19.0628 19.7319 18.6776 20.575 17.9282C21.4182 17.1787 21.9304 16.126 22 15.0001V9.00006C21.9304 7.87411 21.4182 6.82143 20.575 6.07196C19.7319 5.32249 18.6263 4.93715 17.5 5.00006V5.00006Z" stroke="#000000" stroke-width="1.5" stroke-linecap="round" stroke-linejoin="round"/> <path d="M6 15H18" stroke="#000000" stroke-width="1.5" stroke-linecap="round" stroke-linejoin="round"/> <path d="M6 12H8" stroke="#000000" stroke-width="1.5" stroke-linecap="round" stroke-linejoin="round"/> <path d="M6 9H8" stroke="#000000" stroke-width="1.5" stroke-linecap="round" stroke-linejoin="round"/> <path d="M11 12H13" stroke="#000000" stroke-width="1.5" stroke-linecap="round" stroke-linejoin="round"/> <path d="M11 9H13" stroke="#000000" stroke-width="1.5" stroke-linecap="round" stroke-linejoin="round"/> <path d="M16 12H18" stroke="#000000" stroke-width="1.5" stroke-linecap="round" stroke-linejoin="round"/> <path d="M16 9H18" stroke="#000000" stroke-width="1.5" stroke-linecap="round" stroke-linejoin="round"/> </g>
</svg>