<!DOCTYPE svg PUBLIC "-//W3C//DTD SVG 1.1//EN" "http://www.w3.org/Graphics/SVG/1.1/DTD/svg11.dtd">
<!-- Uploaded to: SVG Repo, www.svgrepo.com, Transformed by: SVG Repo Mixer Tools -->
<svg width="800px" height="800px" viewBox="0 0 16 16" fill="none" xmlns="http://www.w3.org/2000/svg">
<g id="SVGRepo_bgCarrier" stroke-width="0"/>
<g id="SVGRepo_tracerCarrier" stroke-linecap="round" stroke-linejoin="round"/>
<g id="SVGRepo_iconCarrier"> <path fill-rule="evenodd" clip-rule="evenodd" d="M10.5 9C12.9853 9 15 6.98528 15 4.5C15 2.01472 12.9853 0 10.5 0C8.01475 0 6.00003 2.01472 6.00003 4.5C6.00003 5.38054 6.25294 6.20201 6.69008 6.89574L0.585815 13L3.58292 15.9971L4.99714 14.5829L3.41424 13L5.00003 11.4142L6.58292 12.9971L7.99714 11.5829L6.41424 10L8.10429 8.30995C8.79801 8.74709 9.61949 9 10.5 9ZM10.5 7C11.8807 7 13 5.88071 13 4.5C13 3.11929 11.8807 2 10.5 2C9.11932 2 8.00003 3.11929 8.00003 4.5C8.00003 5.88071 9.11932 7 10.5 7Z" fill="#ffffff"/> </g>
</svg>