<!DOCTYPE svg PUBLIC "-//W3C//DTD SVG 1.1//EN" "http://www.w3.org/Graphics/SVG/1.1/DTD/svg11.dtd">
<!-- Uploaded to: SVG Repo, www.svgrepo.com, Transformed by: SVG Repo Mixer Tools -->
<svg width="800px" height="800px" viewBox="0 0 24 24" fill="none" xmlns="http://www.w3.org/2000/svg">
<g id="SVGRepo_bgCarrier" stroke-width="0"/>
<g id="SVGRepo_tracerCarrier" stroke-linecap="round" stroke-linejoin="round"/>
<g id="SVGRepo_iconCarrier"> <path fill-rule="evenodd" clip-rule="evenodd" d="M18.75 19.8107L3.75 4.81066L4.81066 3.75L19.8107 18.75L18.75 19.8107Z" fill="#ffffff"/> <path fill-rule="evenodd" clip-rule="evenodd" d="M6.15107 8.09537C5.80424 8.86497 5.61121 9.71932 5.61121 10.6184V15.3158C5.61121 15.7194 5.47525 16.2984 5.31123 16.8298C5.23275 17.0841 5.15399 17.3084 5.0949 17.4689C5.06544 17.5489 5.04108 17.6125 5.02437 17.6553L5.00543 17.7034L5.0009 17.7147L5 17.717L5.69455 18.75H16.8057L15.3057 17.25H6.75134C6.91909 16.7031 7.11121 15.9518 7.11121 15.3158V10.6184C7.11121 10.1445 7.18194 9.68759 7.31328 9.25758L6.15107 8.09537ZM16.2779 14.3331V10.6184C16.2779 8.06309 14.2212 6 11.6945 6C10.6443 6 9.67524 6.35646 8.90135 6.95656L7.8342 5.88941C8.51326 5.3279 9.31557 4.91138 10.1946 4.68727V3.75H13.1946V4.68731C15.8315 5.35963 17.7779 7.76335 17.7779 10.6184V15.3158C17.7779 15.4841 17.8015 15.683 17.841 15.8962L16.2779 14.3331ZM8.69462 21H14.6946V19.5H8.69462V21Z" fill="#ffffff"/> </g>
</svg>