<!DOCTYPE svg PUBLIC "-//W3C//DTD SVG 1.1//EN" "http://www.w3.org/Graphics/SVG/1.1/DTD/svg11.dtd">
<!-- Uploaded to: SVG Repo, www.svgrepo.com, Transformed by: SVG Repo Mixer Tools -->
<svg version="1.1" id="Layer_1" xmlns="http://www.w3.org/2000/svg" xmlns:xlink="http://www.w3.org/1999/xlink" viewBox="-66.35 -66.35 606.63 606.63" xml:space="preserve" width="800px" height="800px" fill="#000000">
<g id="SVGRepo_bgCarrier" stroke-width="0" transform="translate(30.805515000000014,30.805515000000014), scale(0.87)">
<rect x="-66.35" y="-66.35" width="606.63" height="606.63" rx="151.6575" fill="#3584e4" strokewidth="0"/>
</g>
<g id="SVGRepo_tracerCarrier" stroke-linecap="round" stroke-linejoin="round" stroke="#CCCCCC" stroke-width="3.791448"/>
<g id="SVGRepo_iconCarrier"> <circle style="fill:#3584e4;" cx="236.966" cy="236.966" r="236.966"/> <g> <path style="fill:#4B4A4B;" d="M377.783,275.697c0,5.729-4.647,10.376-10.368,10.376H220.827c-5.729,0-10.368-4.647-10.368-10.376 v-77.488c0-5.729,4.64-10.368,10.368-10.368h146.587c5.721,0,10.368,4.64,10.368,10.368V275.697z"/> <path style="fill:#4B4A4B;" d="M340.249,160.563H112.257c-8.917,0-16.131,7.222-16.131,16.131v120.526 c0,8.902,7.214,16.131,16.131,16.131h227.993c8.909,0,16.138-7.229,16.138-16.131V176.693 C356.384,167.784,349.159,160.563,340.249,160.563z M338.278,298.978H111.28V175.384h226.998V298.978z"/> </g> <rect x="111.28" y="232.85" style="fill:#676969;" width="226.998" height="66.132"/> <rect x="111.28" y="175.384" style="fill:#767879;" width="226.998" height="57.462"/> <polygon style="fill:#E84849;" points="117.952,175.384 111.28,175.384 111.28,299.131 241.684,299.131 "/> <rect x="111.28" y="175.384" style="opacity:0.1;fill:#FFFFFF;enable-background:new ;" width="226.998" height="57.462"/> </g>
</svg>