<?xml version="1.0" encoding="UTF-8"?>
<!-- Uploaded to: SVG Repo, www.svgrepo.com, Generator: SVG Repo Mixer Tools -->
<svg width="800px" height="800px" viewBox="-2 0 34 34" version="1.1" xmlns="http://www.w3.org/2000/svg" xmlns:xlink="http://www.w3.org/1999/xlink">
    
    <title>notification</title>
    <desc>Created with Sketch.</desc>
    <g id="icons" stroke="none" stroke-width="1" fill="none" fill-rule="evenodd">
        <g id="ui-gambling-website-lined-icnos-casinoshunter" transform="translate(-1385.000000, -283.000000)" fill="#1C1C1F" fill-rule="nonzero">
            <g id="1" transform="translate(1350.000000, 120.000000)">
                <path d="M50.5,163 C52.3058348,163 53.792246,164.367615 53.9799976,166.123608 C52.754177,167.383192 52,169.103522 52,171 C52,174.865993 55.1340068,178 59,178 C59.695354,178 60.3670274,177.898611 61.0010432,177.709811 L61,186 L61.5,186 C63.4329966,186 65,187.567003 65,189.5 C65,191.432997 63.4329966,193 61.5,193 L55.6583461,193.000686 C54.8344797,195.330712 52.6121813,197 50,197 C47.3878187,197 45.1655203,195.330712 44.3416539,193.000686 L38.5,193 C36.5670034,193 35,191.432997 35,189.5 C35,187.567003 36.5670034,186 38.5,186 L39,186 L39,177 C39,172.336021 41.9026613,168.349994 46.0000384,166.749866 L46,166.5 C46,164.631437 47.4642776,163.104874 49.3079648,163.005179 L49.5,163 L50.5,163 Z M59,166 C61.7614237,166 64,168.238576 64,171 C64,173.761424 61.7614237,176 59,176 C56.2385763,176 54,173.761424 54,171 C54,168.238576 56.2385763,166 59,166 Z M50.5,165 L49.5,165 C48.7830092,165 48.1835122,165.503051 48.0352024,166.175458 C48.6737492,166.059923 49.3298767,166 50,166 C50.6701233,166 51.3262508,166.059923 51.9633166,166.174703 C51.8164878,165.503051 51.2169908,165 50.5,165 Z" id="notification">
</path>
            </g>
        </g>
    </g>
</svg>