<?xml version="1.0" encoding="UTF-8" standalone="no"?>
<!-- Uploaded to: SVG Repo, www.svgrepo.com, Generator: SVG Repo Mixer Tools -->

<svg
   fill="#000000"
   width="800px"
   height="800px"
   viewBox="0 0 24 24"
   id="lightning"
   class="icon glyph"
   version="1.1"
   sodipodi:docname="battery.svg"
   inkscape:version="1.3 (0e150ed6c4, 2023-07-21)"
   xmlns:inkscape="http://www.inkscape.org/namespaces/inkscape"
   xmlns:sodipodi="http://sodipodi.sourceforge.net/DTD/sodipodi-0.dtd"
   xmlns="http://www.w3.org/2000/svg"
   xmlns:svg="http://www.w3.org/2000/svg">
  <defs
     id="defs1">
    <linearGradient
       id="swatch1"
       inkscape:swatch="solid">
      <stop
         style="stop-color:#000000;stop-opacity:1;"
         offset="0"
         id="stop1" />
    </linearGradient>
  </defs>
  <sodipodi:namedview
     id="namedview1"
     pagecolor="#ffffff"
     bordercolor="#999999"
     borderopacity="1"
     inkscape:showpageshadow="0"
     inkscape:pageopacity="0"
     inkscape:pagecheckerboard="0"
     inkscape:deskcolor="#d1d1d1"
     inkscape:zoom="0.59"
     inkscape:cx="400"
     inkscape:cy="400"
     inkscape:window-width="1352"
     inkscape:window-height="1056"
     inkscape:window-x="68"
     inkscape:window-y="10"
     inkscape:window-maximized="0"
     inkscape:current-layer="lightning" />
  <path
     d="M18,11.74a1,1,0,0,0-.52-.63L14.09,9.43,15,3.14a1,1,0,0,0-1.78-.75l-7,9a1,1,0,0,0-.17.87,1,1,0,0,0,.59.67l4.27,1.71L10,20.86a1,1,0,0,0,.63,1.07A.92.92,0,0,0,11,22a1,1,0,0,0,.83-.45l6-9A1,1,0,0,0,18,11.74Z"
     id="path1"
     style="fill:#0f0f0f;fill-opacity:1" />
</svg>
