<?xml version="1.0" encoding="UTF-8"?>
<svg version="1.1" xmlns="http://www.w3.org/2000/svg" width="598" height="598">
<path d="M0 0 C1.26033564 0.86600335 2.52074854 1.73189428 3.78125 2.59765625 C11.94420598 8.26108951 19.53115637 14.45503677 27 21 C28.2065625 22.03833984 28.2065625 22.03833984 29.4375 23.09765625 C41.55568031 33.72153392 53.20168629 45.18682053 63 58 C63.7940625 59.0003125 64.588125 60.000625 65.40625 61.03125 C81.80882688 81.78130599 95.37354201 104.80152154 106 129 C106.31630371 129.71446289 106.63260742 130.42892578 106.95849609 131.16503906 C122.71986921 167.38959937 129.46422921 207.26301258 129.3125 246.5625 C129.31034485 247.5715741 129.3081897 248.58064819 129.30596924 249.62030029 C129.25245495 265.27152821 128.72740012 280.55232989 126 296 C125.82259277 297.05509766 125.64518555 298.11019531 125.46240234 299.19726562 C118.16004101 341.28958759 101.5132621 382.03454086 77 417 C76.33355469 417.95132812 75.66710937 418.90265625 74.98046875 419.8828125 C73.02300325 422.61768283 71.02570658 425.31528352 69 428 C68.59700684 428.53447754 68.19401367 429.06895508 67.77880859 429.61962891 C61.00253594 438.55696934 53.79487581 446.93802394 46 455 C45.05302246 455.97984863 45.05302246 455.97984863 44.08691406 456.97949219 C36.11421234 465.18384626 28.08856986 473.02364757 19 480 C17.73754054 481.00167131 16.47588173 482.00435222 15.21484375 483.0078125 C-22.5748953 512.80425453 -66.80959938 532.2598839 -113.875 541.6875 C-114.86556396 541.89020508 -115.85612793 542.09291016 -116.87670898 542.30175781 C-133.51875869 545.49043043 -150.31949283 546.33828363 -167.22949219 546.26074219 C-169.99957134 546.25000166 -172.7690024 546.26073528 -175.5390625 546.2734375 C-193.29744884 546.28931026 -210.75799216 544.83845864 -228.1875 541.375 C-229.15790726 541.184254 -229.15790726 541.184254 -230.1479187 540.98965454 C-251.60112793 536.73549276 -272.02231474 529.84810717 -292 521 C-292.86399414 520.62149902 -293.72798828 520.24299805 -294.61816406 519.85302734 C-318.2442414 509.40218108 -340.1404079 495.49966111 -360 479 C-361.49660156 477.78183594 -361.49660156 477.78183594 -363.0234375 476.5390625 C-377.57559977 464.51865188 -391.60738092 451.08187862 -403 436 C-403.76699219 435.03835938 -404.53398437 434.07671875 -405.32421875 433.0859375 C-447.05614946 380.59008096 -469.56363524 314.92619832 -469.3125 248 C-469.31034485 246.96475189 -469.3081897 245.92950378 -469.30596924 244.86288452 C-469.25324924 229.06105591 -468.8140541 213.58980917 -466 198 C-465.80132324 196.88786133 -465.60264648 195.77572266 -465.39794922 194.62988281 C-460.95483607 170.58049284 -453.76069552 147.4165882 -444 125 C-443.63712891 124.16581543 -443.27425781 123.33163086 -442.90039062 122.47216797 C-431.19623438 95.96658521 -415.14781485 71.70085683 -396 50 C-395.32324219 49.21238281 -394.64648438 48.42476563 -393.94921875 47.61328125 C-382.63616546 34.67466302 -370.44427304 22.41655652 -356.60302734 12.20166016 C-355.04917195 11.03686024 -353.53343089 9.82174723 -352.01953125 8.60546875 C-271.89195045 -55.55879065 -156.88266492 -69.41111578 0 0 Z " fill="#F2F0EE" transform="translate(469,52)"/>
<path d="M0 0 C0 3.6878321 -0.96413013 4.76315378 -3.04296875 7.76953125 C-3.6980542 8.72915771 -4.35313965 9.68878418 -5.02807617 10.67749023 C-5.74068604 11.71204346 -6.4532959 12.74659668 -7.1875 13.8125 C-34.38017375 54.00368741 -54.4887833 96.81008415 -65.375 144.1875 C-65.5446225 144.92299072 -65.714245 145.65848145 -65.88900757 146.41625977 C-69.22186996 160.98919189 -71.3508974 175.11929693 -71.3125 190.125 C-71.32861328 191.39214844 -71.34472656 192.65929687 -71.36132812 193.96484375 C-71.36835671 207.61436468 -68.5634306 222.23709463 -59.8359375 233.1796875 C-52.75072222 240.20460308 -43.89761616 243.17045971 -34.125 243.625 C-33.09246094 243.68300781 -33.09246094 243.68300781 -32.0390625 243.7421875 C-30.35976754 243.83548166 -28.67992233 243.91878238 -27 244 C-27 244.66 -27 245.32 -27 246 C-42.02420773 253.97677009 -56.08905723 257.89125125 -73.0625 253.875 C-81.00516322 251.24368826 -87.39492305 247.00818649 -91.68457031 239.70922852 C-96.05931738 230.69910079 -96.52500949 220.53266814 -96.4375 210.6875 C-96.43065186 209.47908447 -96.42380371 208.27066895 -96.41674805 207.02563477 C-96.09410283 188.56960314 -92.29823498 170.62715472 -87 153 C-86.74299316 152.13068848 -86.48598633 151.26137695 -86.22119141 150.36572266 C-69.99925149 96.35327415 -40.06558923 40.06558923 0 0 Z " fill="#BC2929" transform="translate(263,170)"/>
<path d="M0 0 C15.51 0 31.02 0 47 0 C47 3.96 47 7.92 47 12 C46.67 12.33 46.34 12.66 46 13 C41.05 13 36.1 13 31 13 C31.33 29.83 31.66 46.66 32 64 C37.81085915 57.54348984 42.90072648 51.62453579 47.859375 44.6640625 C51.65020793 39.94627407 55.90755637 37.36337934 61.3125 34.75 C62.91544922 33.96882813 62.91544922 33.96882813 64.55078125 33.171875 C65.35902344 32.78515625 66.16726563 32.3984375 67 32 C68.45690208 39.75665461 67.64283224 44.85386934 63.2668457 51.28393555 C60.5958935 54.92599296 57.81759839 58.47087841 55 62 C54.06675081 63.21993979 53.13685275 64.4424533 52.2109375 65.66796875 C49.54494355 69.17122917 46.78826903 72.59363696 44 76 C43.33605225 76.82056885 43.33605225 76.82056885 42.65869141 77.65771484 C35.61879262 86.29747556 27.92480538 94.29638784 20.08795166 102.20858765 C19.00557649 103.30142993 17.92537685 104.39643215 16.84759521 105.49380493 C9.69108335 112.76280542 2.37627101 119.13232017 -6 125 C-6.7206665 125.50692383 -7.44133301 126.01384766 -8.18383789 126.53613281 C-17.6117392 132.99592471 -27.14006069 137.50683481 -38 141 C-39.48113281 141.50853516 -39.48113281 141.50853516 -40.9921875 142.02734375 C-53.07238507 145.82647835 -66.50047693 145.0102599 -77.98046875 139.59375 C-84.85645478 135.57248369 -89.44967798 130.47997148 -94 124 C-93.505 123.01 -93.505 123.01 -93 122 C-92.5153125 122.32613281 -92.030625 122.65226562 -91.53125 122.98828125 C-90.8609375 123.42527344 -90.190625 123.86226563 -89.5 124.3125 C-88.52546875 124.95638672 -88.52546875 124.95638672 -87.53125 125.61328125 C-80.6819086 129.36562106 -74.72995838 130.52992618 -66.9375 130.4375 C-66.01356445 130.42775146 -65.08962891 130.41800293 -64.13769531 130.40795898 C-43.45812049 129.87858771 -26.50344658 119.95224651 -11 107 C-9.91821311 106.12209464 -8.83617766 105.24449549 -7.75390625 104.3671875 C9.67276589 90.10236093 9.67276589 90.10236093 24 73 C21.36 72.67 18.72 72.34 16 72 C15.505 43.29 15.505 43.29 15 14 C8.07 13.505 8.07 13.505 1 13 C0.505 12.505 0.505 12.505 0 12 C0 8.04 0 4.08 0 0 Z " fill="#BD2A2A" transform="translate(269,297)"/>
<path d="M0 0 C11.57090028 8.81769571 17.18287326 22.06658186 19.75 36 C21.63974324 51.42684625 21.13007688 66.68895538 18.75 82 C18.6370459 82.7852002 18.5240918 83.57040039 18.40771484 84.37939453 C14.95548726 108.03662744 6.86207136 130.59398939 -1.25 153 C-1.91 153 -2.57 153 -3.25 153 C-3.07984375 152.34257812 -2.9096875 151.68515625 -2.734375 151.0078125 C-1.88581074 147.67674642 -1.06806541 144.33868575 -0.25 141 C0.05164063 139.82050781 0.35328125 138.64101563 0.6640625 137.42578125 C9.22062793 102.65373036 17.25341856 56.80198364 -1.87890625 24.2265625 C-6.67628209 17.52581945 -13.55809176 11.83061271 -21.83984375 10.25 C-42.81525039 8.074269 -59.08129876 15.57121059 -75.13671875 28.4765625 C-75.92248291 29.11513184 -75.92248291 29.11513184 -76.72412109 29.76660156 C-78.14133708 30.91216559 -79.57966544 32.03147531 -81.01953125 33.1484375 C-91.78281072 41.62668692 -101.4547137 51.39333456 -109.95703125 62.12890625 C-112.75275268 65.62951144 -115.64729216 69.03627718 -118.5625 72.4375 C-119.06668457 73.02917969 -119.57086914 73.62085938 -120.09033203 74.23046875 C-122.70294411 77.27720593 -125.36128591 80.20734766 -128.25 83 C-126.7028708 78.54460609 -124.31771982 74.8138232 -121.6875 70.9375 C-121.24349854 70.2784668 -120.79949707 69.61943359 -120.34204102 68.94042969 C-109.95608416 53.64491562 -98.5627254 37.78710546 -84.37109375 25.80859375 C-82.00039346 23.78716791 -79.72546739 21.67697223 -77.4375 19.5625 C-57.48167835 1.6929688 -26.11601456 -16.6265314 0 0 Z " fill="#BD2B2B" transform="translate(372.25,126)"/>
<path d="M0 0 C39.93601896 0 39.93601896 0 49 9 C53.30924002 13.76091674 53.62511299 18.8057654 53.375 25.06640625 C52.58904089 31.21489888 50.23775699 35.26983593 45.5625 39.3125 C36.96917558 45.17955637 25.97946038 45.1683783 16 46 C15.67 54.58 15.34 63.16 15 72 C10.05 72 5.1 72 0 72 C0 48.24 0 24.48 0 0 Z " fill="#BC2727" transform="translate(211,297)"/>
<path d="M0 0 C16.99387667 -0.11575173 33.98759588 -0.20497614 50.98177624 -0.25906086 C58.87250883 -0.28484101 66.76299197 -0.31998757 74.65356445 -0.37719727 C81.53112479 -0.42703846 88.40850448 -0.4592924 95.2862404 -0.47044247 C98.92794904 -0.47696018 102.56914086 -0.49227353 106.21068382 -0.52865028 C110.27634974 -0.56893421 114.34111759 -0.56994901 118.40698242 -0.56762695 C119.61395279 -0.58560333 120.82092316 -0.60357971 122.06446838 -0.62210083 C131.14898788 -0.56580358 131.14898788 -0.56580358 134.25654602 2.34089661 C136.39448866 5.60167125 136.52481515 7.44836425 136.3125 11.3125 C136.26738281 12.38113281 136.22226562 13.44976562 136.17578125 14.55078125 C136.11777344 15.35902344 136.05976563 16.16726563 136 17 C135.45327763 16.6757435 134.90655525 16.35148701 134.34326553 16.01740456 C131.56084063 14.80932475 129.53776972 14.73880857 126.50775146 14.7215271 C125.39158447 14.71036362 124.27541748 14.69920013 123.12542725 14.68769836 C121.29555267 14.68445808 121.29555267 14.68445808 119.42871094 14.68115234 C118.14065552 14.67110672 116.8526001 14.6610611 115.5255127 14.65071106 C111.99694911 14.62341448 108.46842544 14.60826272 104.93978405 14.59528303 C101.25084544 14.57965097 97.56198832 14.55286099 93.87310791 14.5272522 C86.88924302 14.48046572 79.9053628 14.443721 72.92142129 14.41057932 C64.96979708 14.372357 57.01825472 14.32294713 49.0666995 14.27259517 C32.71119078 14.16927727 16.35563755 14.08041327 0 14 C0 9.38 0 4.76 0 0 Z " fill="#BC2929" transform="translate(153,461)"/>
<path d="M0 0 C1.27844788 -0.00073013 2.55689575 -0.00146027 3.87408447 -0.00221252 C7.37196395 -0.00364512 10.86898336 0.02571762 14.36666322 0.06065726 C18.02480836 0.09194775 21.68297398 0.09485359 25.3412323 0.1007843 C32.26507723 0.11631496 39.18852667 0.15733246 46.11219758 0.20753175 C53.99602534 0.26344978 61.87987215 0.29091783 69.7638489 0.31600893 C85.97846467 0.36824939 102.19265744 0.45718504 118.40698242 0.56762695 C118.40698242 5.18762695 118.40698242 9.80762695 118.40698242 14.56762695 C116.76215881 14.57571381 115.11733521 14.58380066 113.42266846 14.59213257 C97.94245633 14.66952516 82.46233747 14.75712879 66.98224258 14.85515404 C59.02325617 14.90529017 51.06428011 14.95173296 43.10522461 14.98950195 C36.16865574 15.02242817 29.23216697 15.06226286 22.29568648 15.11041701 C18.62238263 15.13567578 14.94913187 15.15745887 11.27576447 15.17097092 C7.17648292 15.18617901 3.07745657 15.2168095 -1.02172852 15.2487793 C-2.2416449 15.25093948 -3.46156128 15.25309967 -4.71844482 15.25532532 C-6.39269531 15.27207054 -6.39269531 15.27207054 -8.10076904 15.28915405 C-9.55535837 15.29745019 -9.55535837 15.29745019 -11.03933334 15.30591393 C-13.6775189 15.57628703 -15.32847759 16.22454711 -17.59301758 17.56762695 C-17.72893779 15.67380531 -17.82542698 13.77712991 -17.90551758 11.88012695 C-17.96352539 10.82438477 -18.0215332 9.76864258 -18.08129883 8.6809082 C-17.57479055 5.45141144 -16.85045899 3.84472578 -14.46073341 1.60946083 C-10.14749782 -0.79651275 -4.79424726 -0.07140458 0 0 Z " fill="#BD2929" transform="translate(309.593017578125,460.432373046875)"/>
<path d="M0 0 C0.66 0 1.32 0 2 0 C0.71183961 13.00493838 -0.61814469 26.00467981 -2 39 C2.62 39 7.24 39 12 39 C10.4799839 43.56004831 6.52738244 45.52676094 2.74804688 48.24023438 C-1.29443926 51.22343523 -3.5160193 53.30098753 -4.41064453 58.29003906 C-4.48395996 59.10698242 -4.55727539 59.92392578 -4.6328125 60.765625 C-4.71660156 61.65507812 -4.80039062 62.54453125 -4.88671875 63.4609375 C-4.96535156 64.38132812 -5.04398437 65.30171875 -5.125 66.25 C-5.21136719 67.18585938 -5.29773438 68.12171875 -5.38671875 69.0859375 C-5.59832308 71.39007353 -5.80248677 73.69462044 -6 76 C-9.61889911 74.32311085 -11.64163494 72.41809257 -14.25 69.375 C-14.95640625 68.55773437 -15.6628125 67.74046875 -16.390625 66.8984375 C-16.92171875 66.27195312 -17.4528125 65.64546875 -18 65 C-22.11975785 66.24155544 -25.50022263 67.73968315 -29.109375 70.07421875 C-30.02847656 70.65880859 -30.94757813 71.24339844 -31.89453125 71.84570312 C-33.81454969 73.08412815 -35.73380856 74.32373151 -37.65234375 75.56445312 C-38.56628906 76.14517578 -39.48023438 76.72589844 -40.421875 77.32421875 C-41.66855957 78.1299231 -41.66855957 78.1299231 -42.94042969 78.9519043 C-43.62008789 79.29777588 -44.29974609 79.64364746 -45 80 C-45.66 79.67 -46.32 79.34 -47 79 C-45.27153297 76.16623931 -43.54209508 73.3330723 -41.8125 70.5 C-41.32974609 69.70851563 -40.84699219 68.91703125 -40.34960938 68.1015625 C-39.6293457 66.92207031 -39.6293457 66.92207031 -38.89453125 65.71875 C-38.17608032 64.54010376 -38.17608032 64.54010376 -37.44311523 63.33764648 C-36.4855779 61.78656883 -35.51378616 60.24419586 -34.52758789 58.71118164 C-34.07246826 58.00340576 -33.61734863 57.29562988 -33.1484375 56.56640625 C-32.73899902 55.93935791 -32.32956055 55.31230957 -31.90771484 54.66625977 C-30.81822237 52.93935437 -30.81822237 52.93935437 -30.8125 50.4375 C-32.32367282 47.33561895 -34.36481174 45.05287036 -36.72265625 42.55078125 C-38 41 -38 41 -38 39 C-36.91460937 39.03222656 -35.82921875 39.06445312 -34.7109375 39.09765625 C-33.26560796 39.08827099 -31.82029296 39.07642139 -30.375 39.0625 C-29.66214844 39.09021484 -28.94929688 39.11792969 -28.21484375 39.14648438 C-24.82139687 39.06865302 -22.78251346 38.79991296 -20.35302734 36.31640625 C-18.73423647 33.945637 -17.35469392 31.53094324 -16 29 C-15.49742676 28.1128833 -14.99485352 27.2257666 -14.47705078 26.31176758 C-12.90850798 23.51695 -11.38657557 20.7009891 -9.875 17.875 C-8.85218688 15.97622603 -7.8287629 14.07778097 -6.8046875 12.1796875 C-6.32741211 11.2937793 -5.85013672 10.40787109 -5.35839844 9.49511719 C-3.61969029 6.30144406 -1.82186703 3.14686124 0 0 Z " fill="#FAED28" transform="translate(360,256)"/>
<path d="M0 0 C15.18 0 30.36 0 46 0 C46 3.96 46 7.92 46 12 C45 13 45 13 41.62109375 13.09765625 C40.22652923 13.09098369 38.83198257 13.07902532 37.4375 13.0625 C36.72658203 13.05798828 36.01566406 13.05347656 35.28320312 13.04882812 C33.52209987 13.03700864 31.76103964 13.01907263 30 13 C30.00222061 13.72440781 30.00444122 14.44881561 30.00672913 15.19517517 C30.02673227 22.00843453 30.04197425 28.82168953 30.05181217 35.63497066 C30.05703989 39.13808885 30.0641355 42.64118285 30.07543945 46.14428711 C30.08834206 50.16780841 30.09322912 54.19130414 30.09765625 58.21484375 C30.10281754 59.47836166 30.10797882 60.74187958 30.11329651 62.04368591 C30.11340981 63.78537804 30.11340981 63.78537804 30.11352539 65.56225586 C30.115746 66.59039902 30.11796661 67.61854218 30.12025452 68.67784119 C30 71 30 71 29 72 C24.38 72 19.76 72 15 72 C15 52.53 15 33.06 15 13 C10.05 13 5.1 13 0 13 C0 8.71 0 4.42 0 0 Z " fill="#BC2727" transform="translate(377,297)"/>
<path d="M0 0 C16.99391558 -0.04672385 33.98781112 -0.08199073 50.98177624 -0.10362434 C58.87239415 -0.11393626 66.76297216 -0.12799497 74.65356445 -0.15087891 C81.53112337 -0.17081538 88.40865339 -0.18371706 95.2862404 -0.18817699 C98.92775794 -0.19078393 102.56919279 -0.19690962 106.21068382 -0.21146011 C110.27615399 -0.22757291 114.34148043 -0.22797952 118.40698242 -0.22705078 C119.61395279 -0.23424133 120.82092316 -0.24143188 122.06446838 -0.24884033 C123.17359589 -0.246091 124.28272339 -0.24334167 125.42546082 -0.24050903 C126.3868909 -0.24235262 127.34832098 -0.24419621 128.33888531 -0.24609566 C131.21938076 0.02028798 133.33980481 0.90750395 136 2 C138.9939548 1.70647502 141.30949055 1.34525472 144 0 C145.7358876 -0.09319367 147.47538901 -0.12191645 149.21377563 -0.12025452 C150.8712809 -0.12231651 150.8712809 -0.12231651 152.56227112 -0.12442017 C153.78002731 -0.12082489 154.99778351 -0.11722961 156.25244141 -0.11352539 C157.5304512 -0.11367142 158.808461 -0.11381744 160.12519836 -0.1139679 C163.63531254 -0.11425549 167.14539273 -0.10836491 170.65549898 -0.10139394 C174.32171234 -0.09515406 177.98792643 -0.0945561 181.65414429 -0.09336853 C188.59915641 -0.09025709 195.54415283 -0.08204621 202.48915803 -0.07201904 C210.39473502 -0.06085211 218.30031275 -0.05534599 226.20589566 -0.05032361 C242.4706063 -0.03986345 258.73530115 -0.02226762 275 0 C275 1.65 275 3.3 275 5 C274.31731898 5.00331015 273.63463797 5.00662029 272.93126965 5.01003075 C256.33153536 5.09119849 239.7319012 5.18327035 223.13229656 5.28752708 C215.1049001 5.33768071 207.07751399 5.38412326 199.05004883 5.421875 C192.05452619 5.45478306 185.05908326 5.49460762 178.06364852 5.54279006 C174.35851839 5.56806693 170.65344122 5.58984463 166.94824791 5.60334396 C162.81523531 5.61853143 158.6824772 5.64915811 154.54956055 5.68115234 C152.70026695 5.68439262 152.70026695 5.68439262 150.81361389 5.68769836 C149.69040741 5.69886185 148.56720093 5.71002533 147.40995789 5.7215271 C145.94292435 5.72982324 145.94292435 5.72982324 144.44625378 5.73828697 C141.74365484 5.83647849 141.74365484 5.83647849 139 8 C137 7.6875 137 7.6875 135 7 C131.95005992 5.98335331 129.85954767 5.863174 126.66596985 5.84178162 C125.55959167 5.8319928 124.4532135 5.82220398 123.31330872 5.81211853 C122.0991478 5.80636307 120.88498688 5.8006076 119.6340332 5.79467773 C117.71679947 5.77982834 117.71679947 5.77982834 115.76083374 5.76467896 C112.25494487 5.7376358 108.74904255 5.71662306 105.24310708 5.69667697 C101.57954216 5.67481379 97.91601867 5.64742672 94.25248718 5.62062073 C87.31462177 5.57069834 80.37673335 5.52575783 73.43882293 5.48259836 C65.54044826 5.43322211 57.64211518 5.37830542 49.74378073 5.32291877 C33.49589215 5.20910569 17.24796545 5.10226518 1 5 C0.67 3.35 0.34 1.7 0 0 Z " fill="#C13A39" transform="translate(153,453)"/>
<path d="M0 0 C2.31 1.98 4.62 3.96 7 6 C7.9593042 6.63583008 8.9186084 7.27166016 9.90698242 7.92675781 C12 10 12 10 12.56762695 13.29980469 C12.54144287 14.57758789 12.51525879 15.85537109 12.48828125 17.171875 C12.47766914 18.1955014 12.47766914 18.1955014 12.46684265 19.23980713 C12.43894021 21.41100561 12.37622253 23.57958668 12.3125 25.75 C12.28741117 27.22522306 12.264599 28.70048671 12.24414062 30.17578125 C12.18913137 33.78469904 12.10289307 37.39209391 12 41 C8.04 41 4.08 41 0 41 C0 27.47 0 13.94 0 0 Z " fill="#BC2626" transform="translate(340,328)"/>
<path d="M0 0 C2.51625 -0.0825 5.0325 -0.165 7.625 -0.25 C8.79603271 -0.30462402 8.79603271 -0.30462402 9.99072266 -0.36035156 C15.10756939 -0.44089091 17.95525116 0.62330277 22 4 C24 7 24 7 23.875 9.9375 C22.85675208 13.50136773 21.93914563 14.77578168 19 17 C14.56521928 18.79943621 10.89232844 19.22229242 6.125 19.125 C3.093125 19.063125 3.093125 19.063125 0 19 C0 12.73 0 6.46 0 0 Z " fill="#F1ECEB" transform="translate(226,310)"/>
<path d="M0 0 C0 3.73830376 -1.08146245 5.01346056 -3.1875 8.0625 C-3.77917969 8.94035156 -4.37085938 9.81820312 -4.98046875 10.72265625 C-7.19145108 13.21589164 -8.84795718 14.03642214 -12 15 C-10.42921185 11.31766057 -8.13566869 8.74453885 -5.4375 5.8125 C-4.63183594 4.93207031 -3.82617188 4.05164063 -2.99609375 3.14453125 C-1 1 -1 1 0 0 Z " fill="#C13939" transform="translate(263,170)"/>
<path d="M0 0 C0.99 0.33 1.98 0.66 3 1 C0.36 4.3 -2.28 7.6 -5 11 C-5 7.58678765 -4.33132534 6.60527115 -2.5 3.8125 C-2.0359375 3.09707031 -1.571875 2.38164062 -1.09375 1.64453125 C-0.7328125 1.10183594 -0.371875 0.55914062 0 0 Z " fill="#C34242" transform="translate(250,198)"/>
</svg>
