<!DOCTYPE svg PUBLIC "-//W3C//DTD SVG 1.1//EN" "http://www.w3.org/Graphics/SVG/1.1/DTD/svg11.dtd">
<!-- Uploaded to: SVG Repo, www.svgrepo.com, Transformed by: SVG Repo Mixer Tools -->
<svg height="800px" width="800px" version="1.1" id="Layer_1" xmlns="http://www.w3.org/2000/svg" xmlns:xlink="http://www.w3.org/1999/xlink" viewBox="0 0 512.001 512.001" xml:space="preserve" fill="#000000">
<g id="SVGRepo_bgCarrier" stroke-width="0"/>
<g id="SVGRepo_tracerCarrier" stroke-linecap="round" stroke-linejoin="round"/>
<g id="SVGRepo_iconCarrier"> <path style="fill:#62a0ea;" d="M412.633,106.845c-27.085-56.356-84.706-95.261-151.414-95.261 c-72.66,0-134.534,46.157-157.916,110.748C45.778,125.148,0,172.676,0,230.901c0,60.036,48.669,108.705,108.705,108.705h286.251 c64.642,0,117.045-52.403,117.045-117.045C512,163.928,468.887,115.368,412.633,106.845z"/> <g style="opacity:0.1;"> <path d="M423.767,311.381h-286.25c-60.036,0-108.705-48.669-108.705-108.705c0-23.13,7.229-44.57,19.544-62.191 C19.202,159.98,0,193.195,0,230.901c0,60.036,48.669,108.705,108.705,108.705h286.251c39.171,0,73.844-19.246,95.089-48.793 C471.201,303.783,448.373,311.381,423.767,311.381z"/> </g> <g> <path style="fill:#6DABE4;" d="M122.476,425.244c-2.118,0-4.236-0.808-5.852-2.424c-3.232-3.232-3.232-8.472,0-11.703l39.9-39.9 c3.232-3.232,8.472-3.232,11.703,0c3.232,3.232,3.232,8.472,0,11.703l-39.9,39.9C126.712,424.436,124.594,425.244,122.476,425.244z "/> <path style="fill:#6DABE4;" d="M230.429,425.244c-2.118,0-4.236-0.808-5.852-2.424c-3.232-3.232-3.232-8.472,0-11.703l39.898-39.9 c3.233-3.232,8.472-3.232,11.704,0s3.232,8.472,0,11.703l-39.9,39.9C234.665,424.436,232.546,425.244,230.429,425.244z"/> <path style="fill:#6DABE4;" d="M349.624,425.244c-2.119,0-4.236-0.808-5.853-2.424c-3.232-3.232-3.232-8.472,0-11.703l39.9-39.9 c3.234-3.232,8.473-3.232,11.705,0c3.232,3.232,3.232,8.472,0,11.703l-39.9,39.9C353.859,424.436,351.742,425.244,349.624,425.244z "/> <path style="fill:#6DABE4;" d="M245.88,492.437c-2.118,0-4.236-0.808-5.852-2.424c-3.232-3.232-3.232-8.472,0-11.704l39.9-39.9 c3.233-3.232,8.472-3.232,11.704,0c3.232,3.232,3.232,8.472,0,11.704l-39.901,39.9C250.116,491.628,247.998,492.437,245.88,492.437 z"/> <path style="fill:#6DABE4;" d="M122.476,500.417c-2.118,0-4.236-0.808-5.852-2.424c-3.232-3.232-3.232-8.472,0-11.704l39.9-39.9 c3.232-3.232,8.472-3.233,11.703,0c3.232,3.232,3.232,8.472,0,11.704l-39.9,39.9C126.712,499.609,124.594,500.417,122.476,500.417z "/> </g> </g>
</svg>