<!DOCTYPE svg PUBLIC "-//W3C//DTD SVG 1.1//EN" "http://www.w3.org/Graphics/SVG/1.1/DTD/svg11.dtd">
<!-- Uploaded to: SVG Repo, www.svgrepo.com, Transformed by: SVG Repo Mixer Tools -->
<svg height="800px" width="800px" version="1.1" id="Layer_1" xmlns="http://www.w3.org/2000/svg" xmlns:xlink="http://www.w3.org/1999/xlink" viewBox="0 0 512 512" xml:space="preserve" fill="#000000">
<g id="SVGRepo_bgCarrier" stroke-width="0"/>
<g id="SVGRepo_tracerCarrier" stroke-linecap="round" stroke-linejoin="round"/>
<g id="SVGRepo_iconCarrier"> <path style="fill:#93D6F4;" d="M447.475,209.476c0.349-3.327,0.525-6.669,0.525-10.01c0-52.934-43.066-96-96-96 c-5.533,0-11.031,0.472-16.444,1.408c-8.831-20.988-23.043-39.124-41.578-52.929c-22.207-16.538-48.617-25.279-76.378-25.279 c-70.579,0-128,57.421-128,128c0,4.806,0.269,9.608,0.803,14.373c-22.705,3.855-43.566,14.808-59.834,31.63 C10.856,221.053,0,247.901,0,276.266c0,59.992,48.808,108.8,108.8,108.8h313.6c49.405,0,89.6-40.195,89.6-89.6 C512,255.383,485.043,220.48,447.475,209.476z"/> <path style="fill:#93D6F4;" d="M447.475,209.476c0.349-3.327,0.525-6.669,0.525-10.01c0-52.934-43.066-96-96-96 c-5.533,0-11.031,0.472-16.444,1.408c-8.831-20.988-23.043-39.124-41.578-52.929c-11.639-8.667-24.44-15.171-37.978-19.419v352.54 h166.4c49.405,0,89.6-40.195,89.6-89.6C512,255.383,485.043,220.48,447.475,209.476z"/> <path style="fill:#6FC8F1;" d="M380.388,307.526c-14.835-20.628-29.481-36.997-30.098-37.683L336,253.919l-14.29,15.924 c-0.616,0.687-15.263,17.056-30.098,37.683c-32.412,45.07-32.412,64.691-32.412,71.14c0,42.348,34.452,76.8,76.8,76.8 s76.8-34.452,76.8-76.8C412.8,372.218,412.8,352.596,380.388,307.526z"/> <path style="fill:#4BBAED;" d="M336,455.466c42.348,0,76.8-34.452,76.8-76.8c0-6.449,0-26.07-32.412-71.14 c-14.835-20.628-29.481-36.997-30.098-37.683L336,253.919"/> <path style="fill:#6FC8F1;" d="M210.788,363.511c-11.671-16.229-23.212-29.126-23.698-29.668l-14.29-15.924l-14.29,15.924 c-0.485,0.541-12.027,13.44-23.698,29.668c-11.167,15.528-26.012,38.415-26.012,57.823c0,35.29,28.71,64,64,64s64-28.71,64-64 C236.8,401.926,221.955,379.039,210.788,363.511z"/> <path style="fill:#4BBAED;" d="M172.8,485.334c35.29,0,64-28.71,64-64c0-19.407-14.845-42.294-26.012-57.821 c-11.671-16.229-23.212-29.126-23.698-29.668l-14.29-15.926"/> </g>
</svg>